<?xml version="1.0" encoding="UTF-8"?>
<svg width="46px" height="47px" viewBox="0 0 46 47" version="1.1" xmlns="http://www.w3.org/2000/svg" xmlns:xlink="http://www.w3.org/1999/xlink">
    <!-- Generator: Sketch 40.1 (33804) - http://www.bohemiancoding.com/sketch -->
    <title>customer-support</title>
    <desc>Created with Sketch.</desc>
    <defs></defs>
    <g id="Page-1" stroke="none" stroke-width="1" fill="none" fill-rule="evenodd">
        <g id="features" transform="translate(-186.000000, -436.000000)" fill="#808A92">
            <g id="Group" transform="translate(113.000000, 426.000000)">
                <g id="Group-5">
                    <g id="customer-support" transform="translate(73.000000, 10.000000)">
                        <path d="M24.3939441,42.5688877 C19.4713941,46.1341769 12.7543333,46.2507448 7.65650187,42.5688877 C7.48122048,42.4553874 7.30979991,42.3955697 7.13451852,42.3955697 C7.02023815,42.3955697 6.90209695,42.3955697 6.78781657,42.4523199 L2.84823222,44.1778309 L4.58560282,40.2651388 C4.70065536,39.9775536 4.70065536,39.6332183 4.47132244,39.4023833 C0.99658125,34.6905879 0.882300873,28.4204643 3.9493391,23.6450167 C3.83505872,22.7822612 3.77482987,21.8627555 3.71691752,21 C-0.855069723,26.4073681 -1.26277269,34.1721677 2.79109203,40.0373713 L0.360317529,45.5014895 C0.245264988,45.8465917 0.303177341,46.1909271 0.534826754,46.4785122 C0.767248331,46.7660974 1.17186264,46.8228475 1.51856459,46.6518302 L7.02023815,44.2376486 C9.74057442,46.0766599 12.8686137,47 15.9966529,47 C19.9933774,47 23.929101,45.5045571 27,42.5719553 C26.653298,42.5719553 26.3058239,42.6287054 25.9560333,42.6287054 C25.43405,42.6256378 24.9159274,42.6256378 24.3939441,42.5688877 L24.3939441,42.5688877 Z" id="Fill-1"></path>
                        <path d="M42.4277639,31.3200723 C47.9345813,23.3939482 47.0078902,12.7457987 40.109104,5.85895118 C32.2836267,-1.95298373 19.6461571,-1.95298373 11.8206798,5.85895118 C8.39988352,9.27382761 6.48853484,13.6708861 6.08122358,18.1859916 C6.02402997,18.9968897 5.96606347,19.7468354 6.02402997,20.5577336 C6.13841719,25.4763593 8.11005103,30.3378903 11.8778734,34.0991923 C15.7600831,37.9746835 20.8626807,40 26.0224719,40 C26.3123044,40 26.6021369,40 26.8919694,39.9429054 C27.7035004,39.8858107 28.4555191,39.8287161 29.267823,39.7106691 C32.1089543,39.2469681 34.8890276,38.1498252 37.3831328,36.4138397 L44.3993977,39.5964798 C44.7464238,39.7106691 45.0934499,39.6535744 45.3832824,39.4213382 C45.6731149,39.1898734 45.7310814,38.7855817 45.5587277,38.4391561 L42.4277639,31.3200723 Z M37.5578051,34.6778541 C37.2679726,34.5636649 36.9209465,34.5636649 36.6883077,34.7920434 C34.7174467,36.238698 32.5734592,37.2216516 30.3119928,37.7432188 C29.5576555,37.9175889 28.8628304,38.0325497 28.108493,38.146739 C22.7160629,38.7824955 17.1520519,36.9894153 13.0372034,32.9387824 C9.269381,29.1774804 7.47319243,24.1446655 7.70505843,19.165859 C7.76302492,18.4120555 7.82021854,17.6613382 7.93769731,16.9654008 C8.5745559,13.3792405 10.2563572,9.96436407 12.9800098,7.18524412 C20.110662,0.0669318867 31.7039617,0.0669318867 38.7751016,7.18524412 C45.1514164,13.5505244 45.9629474,23.5027366 40.6284838,30.7961905 C40.4538114,31.0284268 40.3958449,31.3748523 40.5140966,31.6641832 L42.9471437,37.1614708 L37.5578051,34.6778541 Z" id="Fill-2"></path>
                    </g>
                </g>
            </g>
        </g>
    </g>
</svg>