<?xml version="1.0" encoding="UTF-8"?>
<svg width="71px" height="50px" viewBox="0 0 71 50" version="1.1" xmlns="http://www.w3.org/2000/svg" xmlns:xlink="http://www.w3.org/1999/xlink">
    <!-- Generator: Sketch 40.1 (33804) - http://www.bohemiancoding.com/sketch -->
    <title>Page 1</title>
    <desc>Created with Sketch.</desc>
    <defs></defs>
    <g id="Page-1" stroke="none" stroke-width="1" fill="none" fill-rule="evenodd">
        <g id="features" transform="translate(-449.000000, -434.000000)" stroke-width="2" stroke="#939CA3">
            <g id="Group" transform="translate(113.000000, 426.000000)">
                <g id="Group-5">
                    <g id="Page-1" transform="translate(372.000000, 33.000000) rotate(-13.000000) translate(-372.000000, -33.000000) translate(339.000000, 15.000000)">
                        <path d="M64.2953528,4.93355654 C61.6585139,4.66289383 59.9628673,2.92149162 59.5968944,0.689565296 C59.5318696,0.290650107 59.1859043,-3.55271368e-13 58.7815834,-3.55271368e-13 L5.61797579,-3.55271368e-13 C5.21282128,-3.55271368e-13 4.87185792,0.292315723 4.80266486,0.692063721 C4.45753325,2.69246933 2.66768401,4.43387154 0.65274893,4.86276783 C0.270936657,4.94438305 -2.27373675e-13,5.2800048 -2.27373675e-13,5.67059191 L-2.27373675e-13,30.5432455 C-2.27373675e-13,30.9354982 0.272603959,31.2786152 0.657750838,31.3527352 C2.64851003,31.7333286 4.23328106,33.2482069 4.71096323,35.2003096 C4.79933026,35.5634141 5.13612536,35.8107581 5.51043478,35.8107581 L58.861614,35.8107581 C59.2417589,35.8107581 59.5818886,35.5559188 59.6652538,35.1861519 C60.1354331,33.1166232 61.6768542,31.5367858 64.2861827,31.2877761 C64.7063429,31.2478013 65.0247977,30.8871953 65.0247977,30.4649615 L65.0247977,5.75553836 C65.0247977,5.33663577 64.7121784,4.97602976 64.2953528,4.93355654 L64.2953528,4.93355654 Z" id="Stroke-1"></path>
                        <path d="M7.53910698,12.2510488 L31.0988163,12.2510488" id="Stroke-3"></path>
                        <path d="M7.53910698,18.8477674 L24.5020977,18.8477674" id="Stroke-5"></path>
                        <path d="M7.53910698,26.3868744 L31.0988163,26.3868744" id="Stroke-7"></path>
                        <path d="M35.8107581,-3.69482223e-13 L35.8107581,34.8683698" id="Stroke-9" stroke-dasharray="2"></path>
                    </g>
                </g>
            </g>
        </g>
    </g>
</svg>