<?xml version="1.0" encoding="UTF-8"?>
<svg width="49px" height="65px" viewBox="0 0 49 65" version="1.1" xmlns="http://www.w3.org/2000/svg" xmlns:xlink="http://www.w3.org/1999/xlink">
    <!-- Generator: Sketch 40.1 (33804) - http://www.bohemiancoding.com/sketch -->
    <title>Page 1</title>
    <desc>Created with Sketch.</desc>
    <defs>
        <polygon id="path-1" points="0 59 44.4375 59 44.4375 0.525553846 0 0.525553846"></polygon>
    </defs>
    <g id="Page-1" stroke="none" stroke-width="1" fill="none" fill-rule="evenodd">
        <g id="features" transform="translate(-731.000000, -427.000000)">
            <g id="Group" transform="translate(113.000000, 426.000000)">
                <g id="Group-5">
                    <g id="Page-1" transform="translate(641.500000, 33.000000) rotate(8.000000) translate(-641.500000, -33.000000) translate(619.000000, 3.000000)">
                        <path d="M3,60 L42,60 L42,9 L3,9 L3,60 Z M5.23379517,57.7578418 L39.7689201,57.7578418 L39.7689201,11.2457981 L5.23379517,11.2457981 L5.23379517,57.7578418 Z" id="Fill-1" fill="#939CA3"></path>
                        <g id="Group-13" transform="translate(-0.000000, 0.000000)">
                            <path d="M8.7012,15.8637385 L8.7012,28.3799077 L11.5668,28.3799077 C11.655,26.0398769 13.1139,24.1745692 14.9067,24.1745692 C16.6995,24.1745692 18.1584,26.0398769 18.2466,28.3799077 L21.1113,28.3799077 L21.1113,15.8637385 L8.7012,15.8637385 L8.7012,15.8637385 Z M14.9067,23.5083231 C13.4721,23.5083231 12.312,22.3346769 12.312,20.8914462 C12.312,19.4445846 13.4757,18.2745692 14.9067,18.2745692 C16.3413,18.2745692 17.5014,19.4482154 17.5014,20.8914462 C17.5014,22.3346769 16.3413,23.5083231 14.9067,23.5083231 L14.9067,23.5083231 Z" id="Fill-2" fill="#939CA3"></path>
                            <mask id="mask-2" fill="white">
                                <use xlink:href="#path-1"></use>
                            </mask>
                            <g id="Clip-5"></g>
                            <polygon id="Fill-4" fill="#939CA3" mask="url(#mask-2)" points="9.0774 34.6811077 24.0606 34.6811077 24.0606 32.4436462 9.0774 32.4436462"></polygon>
                            <polygon id="Fill-6" fill="#939CA3" mask="url(#mask-2)" points="9.0774 38.9064154 35.1666 38.9064154 35.1666 37.7863231 9.0774 37.7863231"></polygon>
                            <polygon id="Fill-7" fill="#939CA3" mask="url(#mask-2)" points="9.0774 41.2963692 24.0606 41.2963692 24.0606 40.1762769 9.0774 40.1762769"></polygon>
                            <polygon id="Fill-8" fill="#939CA3" mask="url(#mask-2)" points="9.0774 43.6899538 30.7233 43.6899538 30.7233 42.5698615 9.0774 42.5698615"></polygon>
                            <polygon id="Fill-9" fill="#939CA3" mask="url(#mask-2)" points="15.6555 52.0507077 28.5858 52.0507077 28.5858 50.9306154 15.6555 50.9306154"></polygon>
                            <path d="M8.8875,14.7182308 C7.9848,14.7182308 7.2459,13.9775538 7.2459,13.0626 C7.2459,12.1512769 7.9812,11.4069692 8.8875,11.4069692 C9.7911,11.4069692 10.53,12.1476462 10.53,13.0626 C10.53,13.9775538 9.7947,14.7182308 8.8875,14.7182308 M8.8875,12.0060462 C8.3079,12.0060462 7.8363,12.4807692 7.8363,13.0662308 C7.8363,13.6516923 8.3079,14.1264154 8.8875,14.1264154 C9.468,14.1264154 9.9387,13.6516923 9.9387,13.0662308 C9.9387,12.4844 9.468,12.0060462 8.8875,12.0060462" id="Fill-10" fill="#939CA3" mask="url(#mask-2)"></path>
                            <path d="M35.3538,14.7182308 C34.4502,14.7182308 33.7113,13.9775538 33.7113,13.0626 C33.7113,12.1512769 34.4502,11.4069692 35.3538,11.4069692 C36.2601,11.4069692 36.9954,12.1476462 36.9954,13.0626 C36.9954,13.9775538 36.2601,14.7182308 35.3538,14.7182308 M35.3538,12.0060462 C34.7733,12.0060462 34.3026,12.4807692 34.3026,13.0662308 C34.3026,13.6516923 34.7733,14.1264154 35.3538,14.1264154 C35.9334,14.1264154 36.405,13.6516923 36.405,13.0662308 C36.405,12.4844 35.9334,12.0060462 35.3538,12.0060462" id="Fill-11" fill="#939CA3" mask="url(#mask-2)"></path>
                            <path d="M41.7834,0.525553846 L2.6478,0.525553846 C1.1889,0.525553846 0,1.72370769 0,3.19507692 C0,4.66644615 1.1889,5.8646 2.6478,5.8646 C5.9841,5.8646 8.6733,9.92107692 8.6733,13.2786308 L9.4851,13.2786308 C9.4851,9.54892308 6.4377,5.04949231 2.6514,5.04949231 C1.6389,5.04949231 0.8127,4.21986154 0.8127,3.19507692 C0.8127,2.17392308 1.6389,1.34066154 2.6514,1.34066154 L41.7906,1.34066154 C42.8031,1.34066154 43.6257,2.17029231 43.6257,3.19507692 C43.6257,4.21623077 42.8031,5.04949231 41.7906,5.04949231 C38.0043,5.04949231 34.9524,9.55255385 34.9524,13.2786308 L35.7651,13.2786308 C35.7651,9.92107692 38.4543,5.8646 41.7906,5.8646 C43.2495,5.8646 44.4375,4.66644615 44.4375,3.19507692 C44.4375,1.72007692 43.2459,0.525553846 41.7834,0.525553846" id="Fill-12" fill="#939CA3" mask="url(#mask-2)"></path>
                        </g>
                    </g>
                </g>
            </g>
        </g>
    </g>
</svg>