<?xml version="1.0" encoding="UTF-8"?>
<svg width="42px" height="58px" viewBox="0 0 42 58" version="1.1" xmlns="http://www.w3.org/2000/svg" xmlns:xlink="http://www.w3.org/1999/xlink">
    <!-- Generator: Sketch 40.1 (33804) - http://www.bohemiancoding.com/sketch -->
    <title>Page 1</title>
    <desc>Created with Sketch.</desc>
    <defs>
        <polygon id="path-1" points="41.5010461 0.599698113 0 0.599698113 0 57.9996717 41.5010461 57.9996717 41.5010461 0.599698113"></polygon>
    </defs>
    <g id="Page-1" stroke="none" stroke-width="1" fill="none" fill-rule="evenodd">
        <g id="features" transform="translate(-1001.000000, -430.000000)">
            <g id="Group" transform="translate(113.000000, 426.000000)">
                <g id="Group-5">
                    <g id="Page-1" transform="translate(888.000000, 4.000000)">
                        <path d="M18,24 C18,25.3333333 16,25.3333333 16,24 C16,22.6666667 18,22.6666667 18,24" id="Fill-1" fill="#939CA3"></path>
                        <path d="M18.814,19.408 C18.814,19.952 18,19.952 18,19.408 C18,18.864 18.814,18.864 18.814,19.408" id="Fill-3" fill="#939CA3"></path>
                        <path d="M19,26.997992 C19,28.3340027 17,28.3340027 17,26.997992 C17,25.667336 19,25.667336 19,26.997992" id="Fill-5" fill="#939CA3"></path>
                        <path d="M19,31.5017229 C19,32.1660924 18,32.1660924 18,31.5017229 C18,30.832759 19,30.832759 19,31.5017229" id="Fill-7" fill="#939CA3"></path>
                        <path d="M36.0973248,8.74899319 C34.771658,9.14499319 34.5759838,8.52899319 35.9026752,8.12799319 C37.228342,7.73099319 37.4240162,8.34799319 36.0973248,8.74899319" id="Fill-9" fill="#939CA3"></path>
                        <path d="M19.814,21.408 C19.814,21.952 19,21.952 19,21.408 C19,20.864 19.814,20.864 19.814,21.408" id="Fill-11" fill="#939CA3"></path>
                        <path d="M19.814,26.40575 C19.814,26.94975 19,26.94975 19,26.40575 C19,25.86475 19.814,25.86475 19.814,26.40575" id="Fill-13" fill="#939CA3"></path>
                        <path d="M18.814,34.40575 C18.814,34.94975 18,34.94975 18,34.40575 C18,33.86475 18.814,33.86475 18.814,34.40575" id="Fill-15" fill="#939CA3"></path>
                        <path d="M36.1122501,13.0106367 C36.5132501,12.8381955 37.2812501,14.8170633 36.8802501,14.9895045 C36.4792501,15.1608942 35.7122501,13.178872 36.1122501,13.0106367" id="Fill-17" fill="#939CA3"></path>
                        <path d="M38.0742882,11.080348 C39.4015777,11.384348 39.2565628,12.014348 37.9272592,11.710348 C36.5969485,11.407348 36.7439776,10.777348 38.0742882,11.080348" id="Fill-19" fill="#939CA3"></path>
                        <path d="M38.2574188,12.65983 C39.5389031,13.9016979 39.0278053,14.5862812 37.7425812,13.34017 C36.4610969,12.0983021 36.9721947,11.4137188 38.2574188,12.65983" id="Fill-21" fill="#939CA3"></path>
                        <g id="Group-25">
                            <mask id="mask-2" fill="white">
                                <use xlink:href="#path-1"></use>
                            </mask>
                            <g id="Clip-24"></g>
                            <path d="M38.4508895,2.84604906 L37.7501526,3.6591434 C36.4912579,2.13144528 34.7040474,1.02178491 32.5929947,0.639860377 L30.4863632,12.0986906 L29.0207842,13.8003887 L24.6328895,13.8003887 L23.7553105,13.7905396 L22.8766263,13.8003887 L18.0753632,13.8003887 L14.8258895,3.34835094 C14.1196263,1.00099245 13.3647316,0.241520755 11.5985211,0.74929434 L0.0330473684,3.99401132 L-0.000110526316,5.48559623 L11.5653632,2.24197358 C12.6739421,1.83487925 13.0596789,2.31638868 13.3194158,3.34506792 L16.5655737,13.8003887 L14.5573105,13.8003887 C13.4642053,13.8003887 13.3404158,14.3300491 13.6786263,14.6703887 C15.3000474,16.3031434 15.1066263,19.7251434 13.6786263,24.3771811 C11.4979421,31.4750679 8.46620526,43.3202 21.0197842,47.5990679 C21.2574158,48.2414453 21.4331526,48.9199358 21.5624684,49.6290679 C21.1546263,50.0088038 20.9103632,50.4935962 20.9103632,51.0254453 C20.9103632,51.6645396 21.2673632,52.2423509 21.8376789,52.6428792 C21.8465211,53.1145396 21.8465211,53.592766 21.8343632,54.0775585 C17.8311,55.4980113 13.6786263,55.8350679 13.6786263,57.1296717 C13.6786263,57.6078981 14.0743105,57.9996717 14.5573105,57.9996717 L32.9466789,57.9996717 C33.4296789,57.9996717 33.8253632,57.6078981 33.8253632,57.1296717 C33.8253632,55.8350679 29.6728895,55.4980113 25.6696263,54.0775585 C25.6574684,53.592766 25.6574684,53.1145396 25.6663105,52.6428792 C26.2377316,52.2423509 26.5936263,51.6645396 26.5936263,51.0254453 C26.5936263,50.4957849 26.3482579,50.0088038 25.9415211,49.6290679 C26.0686263,48.9199358 26.2454684,48.2414453 26.4842053,47.5990679 C39.0399947,43.3202 36.0082579,31.4783509 33.8253632,24.3771811 C33.0494684,21.8514453 32.6383105,19.6868415 32.6847316,17.9731057 C35.1837316,18.0125019 37.6805211,16.9871057 39.4290474,14.9571057 C42.5370474,11.3490679 42.0982579,5.92223774 38.4508895,2.84604906 L38.4508895,2.84604906 Z M33.0793105,1.40152075 C34.8123632,1.8502 36.2801526,2.83948302 37.3279421,4.14940755 L33.0163105,9.15710566 C32.5322053,9.07612453 32.1254684,9.13084151 32.0978368,9.2796717 C32.0768368,9.3956717 32.2857316,9.53684151 32.6018368,9.63533208 L31.2622579,11.1958604 L33.0793105,1.40152075 Z M26.1161526,45.2462377 C24.2559947,45.9181623 23.1175737,45.9126906 21.2607316,45.2462377 C10.4114684,41.3438226 12.8695737,30.7013698 14.9054684,24.3596717 C16.2483632,20.1771057 16.2627316,17.390917 15.2856789,15.4856717 C14.9021526,14.7032189 14.9496789,14.7863887 15.3221526,14.7896717 L19.9985211,14.8257849 C19.9929947,14.8673698 19.9896789,14.9089547 19.9896789,14.951634 C19.9896789,15.4561245 20.4030474,15.8621245 20.9103632,15.8621245 C21.4209947,15.8621245 21.8310474,15.4528415 21.8310474,14.951634 C21.8310474,14.9122377 21.8288368,14.8761245 21.8255211,14.8378226 L22.8611526,14.8432943 L23.6226789,14.8345396 L23.7464684,14.8345396 L24.5068895,14.8432943 L32.0492053,14.7863887 C32.4249947,14.7831057 32.4692053,14.7032189 32.0856789,15.483483 C31.3009421,17.3821623 31.2291,20.1738226 32.4658895,24.3563887 C34.3592053,30.7429547 36.9565737,41.3208415 26.1161526,45.2462377 L26.1161526,45.2462377 Z M38.9338895,14.5445396 C37.3246263,16.4158604 35.0267842,17.3635585 32.7234158,17.3372943 C32.8416789,16.2013698 33.1975737,15.3007283 33.8220474,14.6703887 C34.1602579,14.3300491 34.0375737,13.8003887 32.9433632,13.8003887 L29.7999947,13.8003887 L38.4906789,3.74559623 C41.4406263,6.64887925 41.6793632,11.3611057 38.9338895,14.5445396 L38.9338895,14.5445396 Z" id="Fill-23" fill="#939CA3" mask="url(#mask-2)"></path>
                        </g>
                        <path d="M19.817,37.40725 C19.817,37.95125 19,37.95125 19,37.40725 C19,36.86425 19.817,36.86425 19.817,37.40725" id="Fill-26" fill="#939CA3"></path>
                        <path d="M22,35 C22,36.3333333 20,36.3333333 20,35 C20,33.6666667 22,33.6666667 22,35" id="Fill-28" fill="#939CA3"></path>
                        <path d="M22,29.002008 C22,30.332664 20,30.332664 20,29.002008 C20,27.6659973 22,27.6659973 22,29.002008" id="Fill-30" fill="#939CA3"></path>
                        <path d="M22,24.4990803 C22,25.1669732 21,25.1669732 21,24.4990803 C21,23.8336399 22,23.8336399 22,24.4990803" id="Fill-32" fill="#939CA3"></path>
                    </g>
                </g>
            </g>
        </g>
    </g>
</svg>